
Full Credits To:
##     ##  ######  ##       ##     ##  ######  #### ##     ## ######## 
 ##   ##  ##    ## ##       ##     ## ##    ##  ##  ##     ## ##       
  ## ##   ##       ##       ##     ## ##        ##  ##     ## ##       
   ###    ##       ##       ##     ##  ######   ##  ##     ## ######   
  ## ##   ##       ##       ##     ##       ##  ##   ##   ##  ##       
 ##   ##  ##    ## ##       ##     ## ##    ##  ##    ## ##   ##       
##     ##  ######  ########  #######   ######  ####    ###    ######## 

                      #######   #######   #######  
                     ##     ## ##     ## ##     ## 
                     ##        ##        ##        
                     ########  ########  ########  
                     ##     ## ##     ## ##     ## 
                     ##     ## ##     ## ##     ## 
                      #######   #######   #######  


Eight horror films featuring stories of evil curses, vengeful killers and flesh-eating mutants—for collectors of entertainment on the scary side!

File Size:6.08gb

Video
ID : 0
Format : MPEG-4 Visual
Format profile : Advanced Simple@L5
Format settings, BVOP : Yes
Format settings, QPel : No
Format settings, GMC : No warppoints
Format settings, Matrix : Custom
Codec ID : XVID
Codec ID/Hint : XviD
Duration : 1h 42mn
Bit rate : 1 439 Kbps
Width : 680 pixels
Height : 384 pixels
Display aspect ratio : 16:9
Frame rate : 23.976 fps
Color space : YUV
Chroma subsampling : 4:2:0
Bit depth : 8 bits
Scan type : Progressive
Bits/(Pixel*Frame) : 0.230
Stream size : 1.03 GiB (91%)
Writing library : XviD 1.2.1 (UTC 2008-12-04)


Audio
ID : 1
Format : MPEG Audio
Format version : Version 1
Format profile : Layer 3
Mode : Joint stereo
Mode extension : MS Stereo
Codec ID : 55
Codec ID/Hint : MP3
Duration : 1h 42mn
Bit rate mode : Constant
Bit rate : 128 Kbps
Channel(s) : 2 channels
Sampling rate : 48.0 KHz
Stream size : 93.6 MiB (8%)
Alignment : Aligned on interleaves
Interleave, duration : 42 ms (1.00 video frame)
Interleave, preload duration : 504 ms
Writing library : LAME3.98r
Encoding settings : -m j -V 4 -q 2 -lowpass 17 -b 128


Duration:677minutes
Release Date:2011
Language:English


Meridian Kiss Of The Beast:
 
http://www.shotpix.com/images/49582105615154251810.png
 
http://www.shotpix.com/images/33832084162666683985.png
 
http://www.shotpix.com/images/31423870992661886317.png


-----------------------------------------------


Demonic Toys:
 
http://www.shotpix.com/images/13316064019952022931.png
 
http://www.shotpix.com/images/72367467360022234099.png
 
http://www.shotpix.com/images/49140603039390342900.png


-----------------------------------------------


Below:
 
http://www.shotpix.com/images/37813416538213234588.png
 
http://www.shotpix.com/images/62853889256475509359.png
 
http://www.shotpix.com/images/54250124875978001458.png


-----------------------------------------------


Decadent Evil:
 
http://www.shotpix.com/images/14683707208510799330.png
 
http://www.shotpix.com/images/39838896558766110535.png
 
http://www.shotpix.com/images/85794474109784054886.png


-----------------------------------------------


Mr Jingles: (Thanks to : Lost-Dreams for ripping this)
 
http://www.shotpix.com/images/33654949978731743810.png
 
http://www.shotpix.com/images/15247074803670131746.png
 
http://www.shotpix.com/images/05261638803825806498.png

-----------------------------------------------


Evil Bong:
 
http://www.shotpix.com/images/90415348355944799424.png
 
http://www.shotpix.com/images/85491515788977379432.png


-----------------------------------------------


Prom Night:
 
http://www.shotpix.com/images/58654349499001855728.png
 
http://www.shotpix.com/images/86128009500138403957.png
 
http://www.shotpix.com/images/09268556800301898030.png


-----------------------------------------------


I Am omega:
 
http://www.shotpix.com/images/12190919559620498709.png
 
http://www.shotpix.com/images/18206473217419166730.png
 
http://www.shotpix.com/images/54796576662135994310.png


amazon.com/8-Movie-Pack-Midnight-Horror-Collection/dp/B0055SJX6O



Full Credits To:
##     ##  ######  ##       ##     ##  ######  #### ##     ## ######## 
 ##   ##  ##    ## ##       ##     ## ##    ##  ##  ##     ## ##       
  ## ##   ##       ##       ##     ## ##        ##  ##     ## ##       
   ###    ##       ##       ##     ##  ######   ##  ##     ## ######   
  ## ##   ##       ##       ##     ##       ##  ##   ##   ##  ##       
 ##   ##  ##    ## ##       ##     ## ##    ##  ##    ## ##   ##       
##     ##  ######  ########  #######   ######  ####    ###    ######## 

                      #######   #######   #######  
                     ##     ## ##     ## ##     ## 
                     ##        ##        ##        
                     ########  ########  ########  
                     ##     ## ##     ## ##     ## 
                     ##     ## ##     ## ##     ## 
                      #######   #######   #######  
